<?xml version="1.0" encoding="utf-8"?>
<svg version="1.1" id="Layer_1" xmlns="http://www.w3.org/2000/svg" xmlns:xlink="http://www.w3.org/1999/xlink" x="0px" y="0px"
	 viewBox="657 -593.6 1792 1536" style="enable-background:new 657 -593.6 1792 1536;" xml:space="preserve">
<style type="text/css">
	.st0{fill:#000000;}
</style>
<g transform="matrix(1,0,0,-1,37.966102,1343.4237)">
	<path d="M1515,401c-17.3,0-668,620-668,620c-6.7,5.3-15.8,14-27.5,26c-11.7,12-30.2,33.8-55.5,65.5c-25.3,31.7-48,64.2-68,97.5
		c-20,33.3-37.8,73.7-53.5,121c-15.7,47.3-23.5,93.3-23.5,138c0,146.7,42.3,261.3,127,344s201.7,124,351,124
		c41.3,0,83.5-7.2,126.5-21.5s83-33.7,120-58s68.8-47.2,95.5-68.5c26.7-21.3,52-44,76-68c24,24,49.3,46.7,76,68
		c26.7,21.3,58.5,44.2,95.5,68.5s77,43.7,120,58s85.2,21.5,126.5,21.5c149.3,0,266.3-41.3,351-124c84.7-82.7,127-197.3,127-344
		c0-147.3-76.3-297.3-229-450C2182,1019,1532.3,401,1515,401"/>
</g>
</svg>
